<svg width="123" height="21" viewBox="0 0 123 21" fill="none" xmlns="http://www.w3.org/2000/svg">
<path d="M11.4024 15.1252L13.5856 17.7472L12.8176 18.453C12.0789 19.1332 11.2122 19.6745 10.2395 20.0584C9.26306 20.4461 8.27203 20.6399 7.29196 20.6399C5.94986 20.6399 4.70284 20.2961 3.58747 19.6233C2.47941 18.9504 1.59809 18.0325 0.958121 16.8915C0.321812 15.7542 0 14.467 0 13.0663C0 11.6657 0.321812 10.3785 0.958121 9.24117C1.59809 8.1002 2.48307 7.18231 3.58747 6.50943C4.70284 5.83655 5.94986 5.4928 7.29196 5.4928C8.27203 5.4928 9.26306 5.69027 10.2395 6.07425C11.2122 6.45823 12.0789 6.99946 12.8176 7.68331L13.5856 8.3891L11.3914 11.0221L10.543 10.1737C10.0968 9.7312 9.58121 9.37648 9.01073 9.12049C8.44756 8.87548 7.86976 8.74748 7.29196 8.74748C6.55326 8.74748 5.90598 8.93033 5.30624 9.30334C4.69918 9.68366 4.22744 10.1883 3.8654 10.8466C3.51067 11.5012 3.32783 12.2472 3.32783 13.0663C3.32783 13.8855 3.51067 14.6315 3.8654 15.2861C4.22744 15.9444 4.69918 16.449 5.30989 16.8293C5.90598 17.2024 6.55326 17.3852 7.29196 17.3852C7.87707 17.3852 8.44756 17.2572 8.9961 17.0012C9.57756 16.7416 10.1005 16.3869 10.554 15.948L11.4024 15.1252Z" fill="#111618"/>
<path d="M41.9882 0.000976562V6.25436C41.8382 6.18123 41.6883 6.11174 41.5347 6.04592C40.6607 5.68022 39.7428 5.49372 38.8029 5.49372C37.4645 5.49372 36.2175 5.83747 35.1021 6.51035C33.9941 7.18323 33.1127 8.10113 32.4728 9.24209C32.0778 9.94423 31.8035 10.7012 31.6499 11.5094C31.5549 12.0104 31.5073 12.5297 31.5073 13.0673C31.5073 13.6048 31.5549 14.1205 31.6499 14.6178C31.8035 15.426 32.0778 16.1866 32.4728 16.8924C33.1127 18.0334 33.9941 18.9513 35.1021 19.6242C36.2138 20.2971 37.4608 20.6408 38.8029 20.6408C39.9695 20.6408 41.0373 20.4068 41.9882 19.9423V20.3885H45.294V0.000976562H41.9882ZM41.9882 10.1198V16.044C41.6883 16.3987 41.3116 16.6913 40.8289 16.9363C40.2401 17.2362 39.5563 17.3861 38.8029 17.3861C38.0496 17.3861 37.417 17.2033 36.8209 16.8303C36.2102 16.4499 35.7384 15.9453 35.38 15.287C35.0253 14.6398 34.8425 13.8937 34.8425 13.0673C34.8425 12.2408 35.0253 11.4948 35.38 10.8475C35.7384 10.1929 36.2102 9.68459 36.8209 9.30426C37.417 8.93125 38.0642 8.74841 38.8029 8.74841C39.5416 8.74841 40.1743 8.90565 40.7777 9.2165C41.2677 9.47614 41.6737 9.77967 41.9882 10.1198Z" fill="#111618"/>
<path d="M60.2584 12.9164C60.2584 11.5743 59.9622 10.3346 59.3844 9.23386C58.8103 8.1258 58.0131 7.21888 57.022 6.54234C55.9908 5.84752 54.8132 5.4928 53.5187 5.4928C52.2241 5.4928 50.9295 5.83655 49.8288 6.51674C48.7427 7.18962 47.876 8.11117 47.2543 9.25214C46.6363 10.3931 46.3254 11.6767 46.3254 13.0663C46.3254 14.456 46.6472 15.7542 47.2836 16.8915C47.9272 18.0361 48.8122 18.954 49.9129 19.6233C51.0283 20.2961 52.2753 20.6399 53.6174 20.6399C54.5609 20.6399 55.4715 20.5046 56.3235 20.2376C57.1939 19.967 58.024 19.5501 58.792 18.9906L59.6916 18.3397L57.6949 15.6555L56.8063 16.3576C56.4223 16.6648 55.9432 16.9135 55.3764 17.0963C54.8023 17.2901 54.2098 17.3852 53.6174 17.3852C52.908 17.3852 52.279 17.2133 51.6938 16.8623C51.0941 16.4966 50.626 16.0212 50.2603 15.4031C50.0884 15.1142 49.9531 14.8034 49.8507 14.467H60.2584V12.9164ZM51.7048 9.21192C52.2387 8.90108 52.8275 8.74748 53.4931 8.74748C54.0891 8.74748 54.6011 8.89742 55.0656 9.2046C55.5629 9.52642 55.9725 9.96891 56.287 10.5211C56.415 10.7369 56.5247 10.9709 56.6124 11.2123H49.997C50.0994 10.9599 50.2164 10.7259 50.3591 10.5065C50.7065 9.96159 51.1599 9.52642 51.7048 9.21192Z" fill="#111618"/>
<path d="M66.87 8.95209V11.6655C66.87 12.5981 66.8554 13.5306 66.8554 14.4668C66.8554 14.9312 66.8444 15.3956 66.8517 15.8601C66.859 16.2989 66.8298 16.7889 67.1443 17.14C67.4698 17.502 68.0366 17.4033 68.4608 17.3192C68.9728 17.2205 69.4665 17.0376 69.9419 16.8292C69.9675 16.8182 69.9931 16.8072 70.0187 16.7962C70.0772 16.7707 70.1357 16.7451 70.1942 16.7158C70.3661 16.639 70.5343 16.5585 70.7062 16.4781C70.6659 16.4964 70.7135 17.2899 70.7135 17.3631V19.9851L69.9967 20.2484C69.6018 20.3947 69.1958 20.4971 68.7936 20.5556C68.4242 20.6141 68.022 20.6434 67.5941 20.6434C66.369 20.6434 65.3853 20.3069 64.6722 19.6414C63.9371 18.9538 63.5641 18.0213 63.5641 16.8657V8.95209H60.8287V5.74494H63.5641V1.9856H66.8737V5.74494H70.7135V8.95209H66.8737H66.87Z" fill="#111618"/>
<path d="M104.251 8.95209V11.6655C104.251 12.5981 104.236 13.5306 104.236 14.4668C104.236 14.9312 104.225 15.3956 104.232 15.8601C104.24 16.2989 104.211 16.7889 104.525 17.14C104.85 17.502 105.417 17.4033 105.842 17.3192C106.354 17.2205 106.847 17.0376 107.323 16.8292C107.348 16.8182 107.374 16.8072 107.399 16.7962C107.458 16.7707 107.516 16.7451 107.575 16.7158C107.747 16.639 107.915 16.5585 108.087 16.4781C108.047 16.4964 108.094 17.2899 108.094 17.3631V19.9851L107.377 20.2484C106.982 20.3947 106.577 20.4971 106.174 20.5556C105.805 20.6141 105.403 20.6434 104.975 20.6434C103.75 20.6434 102.766 20.3069 102.053 19.6414C101.318 18.9538 100.945 18.0213 100.945 16.8657V8.95209H98.2095V5.74494H100.945V1.9856H104.254V5.74494H108.094V8.95209H104.254H104.251Z" fill="#111618"/>
<path d="M76.3569 5.74377H73.051V20.3862H76.3569V5.74377Z" fill="#111618"/>
<path d="M92.5279 5.74536L86.1574 20.3878H83.7109L77.3113 5.74536H80.9244L84.9543 15.0962L88.9696 5.74536H92.5279Z" fill="#111618"/>
<path d="M96.7886 5.74377H93.4827V20.3862H96.7886V5.74377Z" fill="#111618"/>
<path d="M123 12.9164C123 11.5743 122.708 10.3346 122.13 9.23386C121.556 8.1258 120.758 7.21888 119.764 6.54234C118.74 5.84752 117.562 5.4928 116.26 5.4928C114.958 5.4928 113.675 5.83655 112.574 6.51674C111.488 7.18962 110.621 8.11117 110 9.25214C109.382 10.3858 109.071 11.6694 109.071 13.0663C109.071 14.4633 109.393 15.7542 110.029 16.8915C110.673 18.0361 111.558 18.954 112.658 19.6233C113.774 20.2961 115.021 20.6399 116.366 20.6399C117.306 20.6399 118.217 20.5046 119.069 20.2376C119.939 19.967 120.769 19.5501 121.537 18.9906L122.437 18.3397L120.44 15.6555L119.552 16.3576C119.171 16.6611 118.689 16.9098 118.122 17.0963C117.548 17.2865 116.955 17.3852 116.366 17.3852C115.653 17.3852 115.024 17.2133 114.439 16.8623C113.839 16.4966 113.371 16.0212 113.006 15.4031C112.834 15.1179 112.699 14.8034 112.596 14.467H123V12.9164ZM112.742 11.2123C112.841 10.9599 112.962 10.7259 113.101 10.5065H113.104C113.452 9.96159 113.905 9.52642 114.45 9.21192C114.984 8.90108 115.569 8.74748 116.235 8.74748C116.835 8.74748 117.346 8.89742 117.811 9.2046C118.308 9.52642 118.718 9.96891 119.032 10.5211C119.16 10.7369 119.27 10.9709 119.358 11.2123H112.742Z" fill="#111618"/>
<path fill-rule="evenodd" clip-rule="evenodd" d="M24.7065 20.8214L20.8765 20.8231C20.5973 20.8231 20.3719 20.596 20.3719 20.3168V17.417L17.9297 19.7988C17.7295 19.9939 17.4099 19.9888 17.2165 19.7904L16.3116 18.8619L15.4336 17.9452C15.2418 17.745 15.2468 17.4288 15.4436 17.2354L17.8624 14.8604H15.045C14.7658 14.8604 14.5404 14.635 14.5404 14.3558V10.5511C14.5404 10.1474 14.7019 9.76223 14.9861 9.47797L18.6142 5.87511C18.8985 5.59253 19.2837 5.43274 19.6857 5.43442L23.5156 5.43274C23.7948 5.43274 24.0202 5.65981 24.0202 5.93902V8.83881L26.4625 6.45708C26.6626 6.26197 26.9805 6.26702 27.1756 6.46549L28.0806 7.39396L28.9586 8.31066C29.1503 8.51081 29.1453 8.82703 28.9485 9.02046L26.5298 11.3955H29.3471C29.6263 11.3955 29.8517 11.6208 29.8517 11.9001V15.7048C29.8517 16.1084 29.6903 16.4936 29.406 16.7779L25.7813 20.3807C25.497 20.6633 25.1101 20.8214 24.7098 20.8214H24.7065ZM21.1389 8.97841C20.7369 8.97841 20.3517 9.13484 20.0675 9.4191L18.5251 10.9531C18.2391 11.2373 18.0777 11.6242 18.0793 12.0279L18.0827 14.8284L20.3988 17.2808L23.2532 17.2741C23.6552 17.2741 24.0404 17.1176 24.3246 16.8334L25.867 15.2994C26.153 15.0151 26.3145 14.6283 26.3128 14.2246L26.3094 11.4241L23.9933 8.97168L21.1389 8.97841Z" fill="#FCE459"/>
</svg>
