<svg id="Layer_1" data-name="Layer 1" xmlns="http://www.w3.org/2000/svg" viewBox="0 0 35.34 41"><defs><style>.cls-1{fill:#8d8d8d;}</style></defs><path class="cls-1" d="M436.79,560.5c-1.31-5.17,1.54-8.67,5.13-11.46,9.46-7.37,22.66-4.46,28.6,6.05a8.92,8.92,0,0,0,1.28,1.41v4Z" transform="translate(-436.46 -519.5)"/><path class="cls-1" d="M454.79,519.5c.85.48,1.69,1,2.55,1.44,4.05,2.1,6.46,5.25,5.65,10a9.88,9.88,0,0,1-8.93,8.1c-4,.16-8.2-3.23-9.34-7.59-1.07-4.08,1.14-8.31,5.48-10.54.87-.45,1.73-.93,2.59-1.39Z" transform="translate(-436.46 -519.5)"/></svg>