<svg id="Layer_1" data-name="Layer 1" xmlns="http://www.w3.org/2000/svg" viewBox="0 0 39.55 41.84"><defs><style>.cls-1{fill:#2ab155;}.cls-2{fill:#28ab52;}</style></defs><path class="cls-1" d="M599,554.7V534.92a12.84,12.84,0,0,1,7.78-7.39c3-.94,7.91-1.1,10.35,1.65s.19,6.13,3.27,9.27c.55.56,2.58,2.63,5.13,2.51,1.36-.06,2.19-.71,2.84-.21s.35,1.64.26,3.82a25.05,25.05,0,0,0,.16,4.66c.53,7.6.35,7.79-7,10.41h-17.8A5.74,5.74,0,0,1,599,554.7Z" transform="translate(-598.98 -517.8)"/><path class="cls-1" d="M638.52,542.52a25.77,25.77,0,0,1-2.2,2.56c-1.35,1.22-3,2.62-4.77,1.95s-.81-2.87-.89-4.37c-.15-2.94.06-5.9-.09-8.85-.26-5.06-3-7.79-8.06-8.06-2.61-.14-5.25.06-7.86-.08-1.32-.08-3.22.84-3.8-1.13-.44-1.5.47-2.91,1.52-4a35.35,35.35,0,0,1,3.42-2.77h17.79a5.73,5.73,0,0,1,4.94,5Z" transform="translate(-598.98 -517.8)"/><path class="cls-2" d="M626.36,538.55c-1.07-.07-1.9,0-2.7-.18-2.57-.41-3.58-2.2-3.63-4.54,0-1.58-.86-3.94.66-4.57,2.18-.91,3,1.86,4.44,3a16,16,0,0,1,2.42,2.45c.76.94,2.52,1.58,1.74,3.13C628.69,539,627.17,538.2,626.36,538.55Z" transform="translate(-598.98 -517.8)"/></svg>