<svg width="18" height="18" viewBox="0 0 18 18" fill="none" xmlns="http://www.w3.org/2000/svg">
<path d="M9 5.40625C8.28922 5.40625 7.59441 5.61702 7.00342 6.01191C6.41243 6.40679 5.95181 6.96806 5.67981 7.62473C5.40781 8.2814 5.33664 9.00399 5.4753 9.70111C5.61397 10.3982 5.95624 11.0386 6.45884 11.5412C6.96143 12.0438 7.60178 12.386 8.29889 12.5247C8.99601 12.6634 9.7186 12.5922 10.3753 12.3202C11.0319 12.0482 11.5932 11.5876 11.9881 10.9966C12.383 10.4056 12.5938 9.71078 12.5938 9C12.5938 8.04688 12.2151 7.13279 11.5412 6.45884C10.8672 5.78488 9.95312 5.40625 9 5.40625ZM9 10.7188C8.66006 10.7188 8.32776 10.6179 8.04511 10.4291C7.76247 10.2402 7.54217 9.9718 7.41208 9.65774C7.28199 9.34368 7.24796 8.99809 7.31428 8.66469C7.38059 8.33128 7.54429 8.02503 7.78466 7.78466C8.02503 7.54429 8.33128 7.38059 8.66469 7.31428C8.99809 7.24796 9.34368 7.28199 9.65774 7.41208C9.9718 7.54217 10.2402 7.76247 10.4291 8.04511C10.6179 8.32776 10.7188 8.66006 10.7188 9C10.7167 9.45521 10.535 9.89118 10.2131 10.2131C9.89118 10.535 9.45521 10.7167 9 10.7188ZM12.75 0.5625H5.25C4.0068 0.5625 2.81451 1.05636 1.93544 1.93544C1.05636 2.81451 0.5625 4.0068 0.5625 5.25V12.75C0.5625 13.9932 1.05636 15.1855 1.93544 16.0646C2.81451 16.9436 4.0068 17.4375 5.25 17.4375H12.75C13.9932 17.4375 15.1855 16.9436 16.0646 16.0646C16.9436 15.1855 17.4375 13.9932 17.4375 12.75V5.25C17.4375 4.0068 16.9436 2.81451 16.0646 1.93544C15.1855 1.05636 13.9932 0.5625 12.75 0.5625ZM15.5625 12.75C15.5625 13.4959 15.2662 14.2113 14.7387 14.7387C14.2113 15.2662 13.4959 15.5625 12.75 15.5625H5.25C4.50408 15.5625 3.78871 15.2662 3.26126 14.7387C2.73382 14.2113 2.4375 13.4959 2.4375 12.75V5.25C2.4375 4.50408 2.73382 3.78871 3.26126 3.26126C3.78871 2.73382 4.50408 2.4375 5.25 2.4375H12.75C13.4959 2.4375 14.2113 2.73382 14.7387 3.26126C15.2662 3.78871 15.5625 4.50408 15.5625 5.25V12.75ZM14.3125 4.9375C14.3125 5.18473 14.2392 5.4264 14.1018 5.63196C13.9645 5.83752 13.7693 5.99774 13.5409 6.09235C13.3124 6.18696 13.0611 6.21171 12.8186 6.16348C12.5762 6.11525 12.3534 5.9962 12.1786 5.82138C12.0038 5.64657 11.8847 5.42384 11.8365 5.18136C11.7883 4.93889 11.813 4.68755 11.9076 4.45915C12.0023 4.23074 12.1625 4.03551 12.368 3.89816C12.5736 3.76081 12.8153 3.6875 13.0625 3.6875C13.394 3.6875 13.712 3.8192 13.9464 4.05362C14.1808 4.28804 14.3125 4.60598 14.3125 4.9375Z" fill="#424738"/>
</svg>
